<mxfile host="app.diagrams.net" agent="Mozilla/5.0 (Windows NT 10.0; Win64; x64) AppleWebKit/537.36 (KHTML, like Gecko) Chrome/135.0.0.0 Safari/537.36 Edg/135.0.0.0" version="26.2.15">
  <diagram name="第 1 页" id="g3TpReX4TTnNbKyccKOH">
    <mxGraphModel dx="1090" dy="933" grid="1" gridSize="10" guides="1" tooltips="1" connect="1" arrows="1" fold="1" page="1" pageScale="1" pageWidth="827" pageHeight="1169" math="0" shadow="0">
      <root>
        <mxCell id="0" />
        <mxCell id="1" parent="0" />
        <mxCell id="0HOzcPe9Jy2ZXsLYCW8O-1" value="开始" style="whiteSpace=wrap;strokeWidth=2;" vertex="1" parent="1">
          <mxGeometry x="247" y="210" width="92" height="54" as="geometry" />
        </mxCell>
        <mxCell id="0HOzcPe9Jy2ZXsLYCW8O-30" style="edgeStyle=orthogonalEdgeStyle;rounded=0;orthogonalLoop=1;jettySize=auto;html=1;exitX=0.5;exitY=1;exitDx=0;exitDy=0;entryX=0.5;entryY=0;entryDx=0;entryDy=0;" edge="1" parent="1" source="0HOzcPe9Jy2ZXsLYCW8O-2" target="0HOzcPe9Jy2ZXsLYCW8O-4">
          <mxGeometry relative="1" as="geometry" />
        </mxCell>
        <mxCell id="0HOzcPe9Jy2ZXsLYCW8O-2" value="视频获取与预处理" style="whiteSpace=wrap;strokeWidth=2;" vertex="1" parent="1">
          <mxGeometry x="199" y="314" width="188" height="54" as="geometry" />
        </mxCell>
        <mxCell id="0HOzcPe9Jy2ZXsLYCW8O-4" value="获取车辆初始位置和特征信息" style="whiteSpace=wrap;strokeWidth=2;" vertex="1" parent="1">
          <mxGeometry x="163" y="419" width="260" height="78" as="geometry" />
        </mxCell>
        <mxCell id="0HOzcPe9Jy2ZXsLYCW8O-5" value="初始化车辆跟踪器" style="whiteSpace=wrap;strokeWidth=2;" vertex="1" parent="1">
          <mxGeometry x="199" y="531" width="188" height="54" as="geometry" />
        </mxCell>
        <mxCell id="0HOzcPe9Jy2ZXsLYCW8O-6" value="获取下一帧视频" style="whiteSpace=wrap;strokeWidth=2;" vertex="1" parent="1">
          <mxGeometry x="207" y="630" width="172" height="54" as="geometry" />
        </mxCell>
        <mxCell id="0HOzcPe9Jy2ZXsLYCW8O-8" value="跟踪车辆，记录像素位移" style="whiteSpace=wrap;strokeWidth=2;" vertex="1" parent="1">
          <mxGeometry x="175" y="720" width="236" height="54" as="geometry" />
        </mxCell>
        <mxCell id="0HOzcPe9Jy2ZXsLYCW8O-9" value="调用 calculate_speeds 方法" style="whiteSpace=wrap;strokeWidth=2;" vertex="1" parent="1">
          <mxGeometry x="165" y="820" width="256" height="54" as="geometry" />
        </mxCell>
        <mxCell id="0HOzcPe9Jy2ZXsLYCW8O-10" value="速度是否大于 阈值" style="rhombus;strokeWidth=2;whiteSpace=wrap;" vertex="1" parent="1">
          <mxGeometry x="222" y="924" width="142" height="142" as="geometry" />
        </mxCell>
        <mxCell id="0HOzcPe9Jy2ZXsLYCW8O-31" style="edgeStyle=orthogonalEdgeStyle;rounded=0;orthogonalLoop=1;jettySize=auto;html=1;exitX=0.5;exitY=1;exitDx=0;exitDy=0;entryX=0.5;entryY=0;entryDx=0;entryDy=0;" edge="1" parent="1" source="0HOzcPe9Jy2ZXsLYCW8O-11" target="0HOzcPe9Jy2ZXsLYCW8O-14">
          <mxGeometry relative="1" as="geometry" />
        </mxCell>
        <mxCell id="0HOzcPe9Jy2ZXsLYCW8O-11" value="记录超速信息" style="whiteSpace=wrap;strokeWidth=2;" vertex="1" parent="1">
          <mxGeometry x="339" y="1080" width="156" height="54" as="geometry" />
        </mxCell>
        <mxCell id="0HOzcPe9Jy2ZXsLYCW8O-33" style="edgeStyle=orthogonalEdgeStyle;rounded=0;orthogonalLoop=1;jettySize=auto;html=1;exitX=0.5;exitY=1;exitDx=0;exitDy=0;entryX=0.5;entryY=0;entryDx=0;entryDy=0;" edge="1" parent="1" source="0HOzcPe9Jy2ZXsLYCW8O-13" target="0HOzcPe9Jy2ZXsLYCW8O-14">
          <mxGeometry relative="1" as="geometry" />
        </mxCell>
        <mxCell id="0HOzcPe9Jy2ZXsLYCW8O-13" value="记录正常通过信息" style="whiteSpace=wrap;strokeWidth=2;" vertex="1" parent="1">
          <mxGeometry x="90" y="1080" width="160" height="54" as="geometry" />
        </mxCell>
        <mxCell id="0HOzcPe9Jy2ZXsLYCW8O-14" value="结束" style="whiteSpace=wrap;strokeWidth=2;" vertex="1" parent="1">
          <mxGeometry x="247" y="1250" width="92" height="54" as="geometry" />
        </mxCell>
        <mxCell id="0HOzcPe9Jy2ZXsLYCW8O-15" value="" style="startArrow=none;endArrow=block;exitX=0.5;exitY=1;entryX=0.5;entryY=0;rounded=0;edgeStyle=orthogonalEdgeStyle;" edge="1" parent="1" source="0HOzcPe9Jy2ZXsLYCW8O-1" target="0HOzcPe9Jy2ZXsLYCW8O-2">
          <mxGeometry relative="1" as="geometry" />
        </mxCell>
        <mxCell id="0HOzcPe9Jy2ZXsLYCW8O-18" value="" style="startArrow=none;endArrow=block;exitX=0.5;exitY=1;entryX=0.5;entryY=0;rounded=0;edgeStyle=orthogonalEdgeStyle;" edge="1" parent="1" source="0HOzcPe9Jy2ZXsLYCW8O-4" target="0HOzcPe9Jy2ZXsLYCW8O-5">
          <mxGeometry relative="1" as="geometry" />
        </mxCell>
        <mxCell id="0HOzcPe9Jy2ZXsLYCW8O-19" value="" style="startArrow=none;endArrow=block;exitX=0.5;exitY=1;entryX=0.5;entryY=0;rounded=0;edgeStyle=orthogonalEdgeStyle;" edge="1" parent="1" source="0HOzcPe9Jy2ZXsLYCW8O-5" target="0HOzcPe9Jy2ZXsLYCW8O-6">
          <mxGeometry relative="1" as="geometry" />
        </mxCell>
        <mxCell id="0HOzcPe9Jy2ZXsLYCW8O-21" value="" style="startArrow=none;endArrow=block;exitX=0.5;exitY=1;entryX=0.5;entryY=0;rounded=0;exitDx=0;exitDy=0;edgeStyle=orthogonalEdgeStyle;" edge="1" parent="1" source="0HOzcPe9Jy2ZXsLYCW8O-6" target="0HOzcPe9Jy2ZXsLYCW8O-8">
          <mxGeometry relative="1" as="geometry">
            <mxPoint x="279" y="720" as="sourcePoint" />
          </mxGeometry>
        </mxCell>
        <mxCell id="0HOzcPe9Jy2ZXsLYCW8O-22" value="" style="startArrow=none;endArrow=block;exitX=0.5;exitY=1;entryX=0.5;entryY=0;rounded=0;edgeStyle=orthogonalEdgeStyle;" edge="1" parent="1" source="0HOzcPe9Jy2ZXsLYCW8O-8" target="0HOzcPe9Jy2ZXsLYCW8O-9">
          <mxGeometry relative="1" as="geometry" />
        </mxCell>
        <mxCell id="0HOzcPe9Jy2ZXsLYCW8O-23" value="" style="startArrow=none;endArrow=block;exitX=0.5;exitY=1;entryX=0.5;entryY=0;rounded=0;edgeStyle=orthogonalEdgeStyle;" edge="1" parent="1" source="0HOzcPe9Jy2ZXsLYCW8O-9" target="0HOzcPe9Jy2ZXsLYCW8O-10">
          <mxGeometry relative="1" as="geometry" />
        </mxCell>
        <mxCell id="0HOzcPe9Jy2ZXsLYCW8O-24" value="是" style="startArrow=none;endArrow=block;exitX=1;exitY=0.5;entryX=0.5;entryY=0;rounded=0;edgeStyle=orthogonalEdgeStyle;exitDx=0;exitDy=0;" edge="1" parent="1" source="0HOzcPe9Jy2ZXsLYCW8O-10" target="0HOzcPe9Jy2ZXsLYCW8O-11">
          <mxGeometry relative="1" as="geometry" />
        </mxCell>
        <mxCell id="0HOzcPe9Jy2ZXsLYCW8O-26" value="否" style="startArrow=none;endArrow=block;exitX=0;exitY=0.5;entryX=0.5;entryY=0;rounded=0;edgeStyle=orthogonalEdgeStyle;exitDx=0;exitDy=0;entryDx=0;entryDy=0;" edge="1" parent="1" source="0HOzcPe9Jy2ZXsLYCW8O-10" target="0HOzcPe9Jy2ZXsLYCW8O-13">
          <mxGeometry relative="1" as="geometry">
            <mxPoint x="150" y="1243" as="targetPoint" />
          </mxGeometry>
        </mxCell>
      </root>
    </mxGraphModel>
  </diagram>
</mxfile>
